# xmcd CD database file
#
# Track frame offsets:
#	150
#	11594
#	25373
#	40370
#	55049
#	67681
#	82312
#	95833
#	111744
#	126150
#	140707
#	147990
#	170028
#	180825
#
# Disc length: 2557 seconds
#
# Revision: 0
# Processed by: cddbd v1.5.2PL0 Copyright (c) Steve Scherf et al.
# Submitted via: CDex 1.51
#
DISCID=ce09fb0e
DTITLE=Sal Salvador - You Ain't Heard Nothin' Yet and Bonus Tracks
DYEAR=2015
DGENRE=Jazz
TTITLE0=Space Walk
TTITLE1=Boato
TTITLE2=On the Street Where You Live
TTITLE3=The Song Is You
TTITLE4=Shade Three
TTITLE5=All the Tings You Are
TTITLE6=Blue March
TTITLE7=The Old Gnu
TTITLE8=Love You Are Here
TTITLE9=Ambulating
TTITLE10=Another Page
TTITLE11=Colors in Sound
TTITLE12=Turkish Taffy
TTITLE13=Chuckles
EXTD=YEAR: 2015
EXTT0=
EXTT1=
EXTT2=
EXTT3=
EXTT4=
EXTT5=
EXTT6=
EXTT7=
EXTT8=
EXTT9=
EXTT10=
EXTT11=
EXTT12=
EXTT13=
PLAYORDER=
